<svg width="146" height="52" viewBox="0 0 146 52" fill="none" xmlns="http://www.w3.org/2000/svg">
<g clip-path="url(#clip0_735_2497)">
<path fill-rule="evenodd" clip-rule="evenodd" d="M10.3416 23.8745H16.0402V23.8842C16.1449 23.8778 16.2504 23.8745 16.3567 23.8745C19.2125 23.8745 21.5276 26.2369 21.5276 29.151C21.5276 32.0651 19.2125 34.4275 16.3567 34.4275C16.2504 34.4275 16.1449 34.4242 16.0402 34.4177V34.4275H11.5607C7.0734 34.657 3.25085 37.4006 1.47705 41.2759V33.1611L1.48227 33.168C1.47888 33.0666 1.47717 32.9647 1.47717 32.8624C1.47717 27.9429 5.4338 23.9465 10.3416 23.8755V23.8745Z" fill="#FF4218"/>
<path fill-rule="evenodd" clip-rule="evenodd" d="M8.99737 11H22.5326H22.5834V11.0002C25.4158 11.0281 27.7035 13.3797 27.7035 16.2765C27.7035 19.1733 25.4158 21.5249 22.5834 21.5527V21.553H22.5326H10.1384C5.60436 21.7849 1.749 24.5836 3.36475e-05 28.523V20.1811L0.00209464 20.1838C0.000700573 20.1187 0 20.0534 0 19.9879C0 15.0683 3.95666 11.0719 8.86451 11.001V11H8.99737Z" fill="#FF9A26"/>
<path d="M145 27.3909C145 27.8463 144.97 28.2562 144.909 28.6206H135.686C135.762 29.5315 136.081 30.245 136.643 30.7612C137.204 31.2773 137.895 31.5354 138.715 31.5354C139.428 31.5354 140.017 31.351 140.483 30.9821C141.08 30.5088 141.725 30.0097 142.487 30.0097H144.681C144.317 31.2242 143.619 32.2262 142.586 33.0156C141.554 33.7899 140.286 34.177 138.783 34.177C137.569 34.177 136.476 33.9113 135.504 33.38C134.548 32.8334 133.796 32.0668 133.25 31.08C132.718 30.0932 132.453 28.9546 132.453 27.6642C132.453 26.3586 132.718 25.2123 133.25 24.2256C133.781 23.2388 134.525 22.4797 135.481 21.9483C136.438 21.417 137.538 21.1513 138.783 21.1513C139.983 21.1513 141.053 21.4094 141.994 21.9256C142.951 22.4417 143.687 23.178 144.203 24.1345C144.734 25.0757 145 26.1612 145 27.3909ZM141.698 26.48C141.683 25.6602 141.387 25.0074 140.81 24.5216C140.233 24.0206 139.527 23.7701 138.692 23.7701C137.903 23.7701 137.235 24.013 136.688 24.4988C136.157 24.9694 135.831 25.6298 135.709 26.48H141.698Z" fill="#1A1A1A"/>
<path d="M127.254 23.3147C127.663 22.6467 128.195 22.123 128.848 21.7434C129.516 21.3639 130.275 21.1741 131.125 21.1741V24.5216H130.282C129.28 24.5216 128.521 24.757 128.005 25.2276C127.504 25.6982 127.254 26.518 127.254 27.687V31.9721C127.254 33.0767 126.358 33.9721 125.254 33.9721H124.065V23.3563C124.065 22.2517 124.961 21.3563 126.065 21.3563H127.254V23.3147Z" fill="#1A1A1A"/>
<path d="M107.812 27.6186C107.812 26.3434 108.063 25.2123 108.564 24.2256C109.08 23.2388 109.771 22.4797 110.636 21.9483C111.517 21.417 112.496 21.1513 113.574 21.1513C114.515 21.1513 115.335 21.3411 116.033 21.7206C116.747 22.1001 117.316 22.5784 117.741 23.1553V23.1553C117.741 22.1617 118.547 21.3563 119.54 21.3563H120.952V31.9721C120.952 33.0766 120.057 33.9721 118.952 33.9721H117.741V32.1275C117.331 32.7196 116.762 33.213 116.033 33.6077C115.32 33.9872 114.492 34.177 113.551 34.177C112.488 34.177 111.517 33.9037 110.636 33.3572C109.771 32.8107 109.08 32.044 108.564 31.0572C108.063 30.0552 107.812 28.909 107.812 27.6186ZM117.741 27.6642C117.741 26.8899 117.589 26.2295 117.286 25.683C116.982 25.1213 116.572 24.6962 116.056 24.4077C115.54 24.1041 114.986 23.9523 114.394 23.9523C113.802 23.9523 113.255 24.0965 112.754 24.385C112.253 24.6734 111.843 25.0985 111.524 25.6602C111.221 26.2067 111.069 26.8595 111.069 27.6186C111.069 28.3777 111.221 29.0457 111.524 29.6226C111.843 30.1843 112.253 30.617 112.754 30.9206C113.27 31.2242 113.817 31.376 114.394 31.376C114.986 31.376 115.54 31.2318 116.056 30.9434C116.572 30.6397 116.982 30.2146 117.286 29.6681C117.589 29.1064 117.741 28.4384 117.741 27.6642Z" fill="#1A1A1A"/>
<path d="M100.682 21.1741C101.638 21.1741 102.488 21.3867 103.232 21.8117C103.976 22.2216 104.553 22.8365 104.963 23.6563C105.388 24.4609 105.6 25.4325 105.6 26.5711V33.9721H104.412C103.308 33.9721 102.412 33.0767 102.412 31.9721V27.0038C102.412 26.0018 102.162 25.2352 101.661 24.7038C101.16 24.1573 100.477 23.884 99.6113 23.884C98.7308 23.884 98.0324 24.1573 97.5163 24.7038C97.0153 25.2352 96.7648 26.0018 96.7648 27.0038V31.9721C96.7648 33.0767 95.8693 33.9721 94.7648 33.9721H93.5767V17.1207H94.7648C95.8693 17.1207 96.7648 18.0161 96.7648 19.1207V22.9276C97.1747 22.381 97.7212 21.956 98.4044 21.6523C99.0875 21.3335 99.8466 21.1741 100.682 21.1741Z" fill="#1A1A1A"/>
<path d="M85.9953 34.177C84.9629 34.177 84.0368 33.9948 83.217 33.6305C82.3972 33.2509 81.7444 32.7424 81.2586 32.1047C80.788 31.4671 80.5299 30.7612 80.4844 29.9869H82.2581C83.0791 29.9869 83.7531 30.6898 84.4012 31.1938V31.1938C84.8263 31.5127 85.35 31.6721 85.9725 31.6721C86.5797 31.6721 87.0504 31.5506 87.3844 31.3077C87.7335 31.0648 87.9081 30.7536 87.9081 30.374C87.9081 29.9641 87.6956 29.6605 87.2705 29.4632C86.8606 29.2506 86.2002 29.0229 85.2893 28.78C84.3481 28.5523 83.5738 28.317 82.9665 28.0741C82.3745 27.8312 81.8583 27.4592 81.418 26.9582C80.993 26.4572 80.7804 25.7817 80.7804 24.9315C80.7804 24.2331 80.9778 23.5955 81.3725 23.0186C81.7824 22.4417 82.3593 21.9863 83.1032 21.6523C83.8623 21.3183 84.7504 21.1513 85.7675 21.1513C87.2705 21.1513 88.4698 21.5308 89.3655 22.2899C90.2612 23.0338 90.7546 24.0434 90.8457 25.3186H89.1814C88.3958 25.3186 87.7821 24.6098 87.1566 24.1345V24.1345C86.7923 23.8308 86.2989 23.679 85.6764 23.679C85.0995 23.679 84.6517 23.7853 84.3329 23.9978C84.0292 24.2104 83.8774 24.5064 83.8774 24.8859C83.8774 25.311 84.09 25.6374 84.5151 25.8652C84.9401 26.0777 85.6005 26.2978 86.4962 26.5255C87.4071 26.7533 88.1586 26.9886 88.7507 27.2315C89.3428 27.4744 89.8513 27.8539 90.2764 28.3701C90.7167 28.8711 90.9444 29.5391 90.9596 30.374C90.9596 31.1028 90.7546 31.7556 90.3447 32.3325C89.95 32.9094 89.3731 33.3648 88.6141 33.6988C87.8702 34.0176 86.9972 34.177 85.9953 34.177Z" fill="#1A1A1A"/>
<path d="M78.8405 27.3909C78.8405 27.8463 78.8101 28.2562 78.7494 28.6206H69.5266C69.6025 29.5315 69.9213 30.245 70.4831 30.7612C71.0448 31.2773 71.7355 31.5354 72.5553 31.5354C73.2684 31.5354 73.8577 31.351 74.323 30.9821C74.9201 30.5088 75.5655 30.0097 76.3274 30.0097H78.5216C78.1573 31.2242 77.4589 32.2262 76.4266 33.0156C75.3943 33.7899 74.1266 34.177 72.6236 34.177C71.4091 34.177 70.3161 33.9113 69.3444 33.38C68.388 32.8334 67.6365 32.0668 67.09 31.08C66.5586 30.0932 66.293 28.9546 66.293 27.6642C66.293 26.3586 66.5586 25.2123 67.09 24.2256C67.6213 23.2388 68.3652 22.4797 69.3217 21.9483C70.2781 21.417 71.3788 21.1513 72.6236 21.1513C73.823 21.1513 74.8933 21.4094 75.8345 21.9256C76.791 22.4417 77.5273 23.178 78.0434 24.1345C78.5748 25.0757 78.8405 26.1612 78.8405 27.3909ZM75.5385 26.48C75.5233 25.6602 75.2273 25.0074 74.6504 24.5216C74.0735 24.0206 73.3675 23.7701 72.5326 23.7701C71.7431 23.7701 71.0751 24.013 70.5286 24.4988C69.9972 24.9694 69.6708 25.6298 69.5494 26.48H75.5385Z" fill="#1A1A1A"/>
<path d="M59.0482 21.1741C60.5512 21.1741 61.7657 21.6523 62.6917 22.6088C63.6178 23.55 64.0809 24.8708 64.0809 26.5711V33.9721H62.8927C61.7882 33.9721 60.8927 33.0767 60.8927 31.9721V27.0038C60.8927 26.0018 60.6423 25.2352 60.1413 24.7038C59.6403 24.1573 58.9571 23.884 58.0918 23.884C57.2112 23.884 56.5129 24.1573 55.9967 24.7038C55.4957 25.2352 55.2452 26.0018 55.2452 27.0038V31.9721C55.2452 33.0767 54.3498 33.9721 53.2452 33.9721H52.0571V21.3563H55.2452V22.9276C55.6703 22.3811 56.2093 21.956 56.8621 21.6524C57.53 21.3335 58.2588 21.1741 59.0482 21.1741Z" fill="#1A1A1A"/>
<path d="M47.3359 19.8533C46.7741 19.8533 46.3035 19.6787 45.924 19.3295C45.5596 18.9652 45.3774 18.5173 45.3774 17.986C45.3774 17.4546 45.5596 17.0144 45.924 16.6652C46.3035 16.3008 46.7741 16.1187 47.3359 16.1187C47.8976 16.1187 48.3606 16.3008 48.725 16.6652C49.1045 17.0144 49.2943 17.4546 49.2943 17.986C49.2943 18.5173 49.1045 18.9652 48.725 19.3295C48.3606 19.6787 47.8976 19.8533 47.3359 19.8533ZM48.9071 21.3563V31.9721C48.9071 33.0766 48.0117 33.9721 46.9071 33.9721H45.719V23.3563C45.719 22.2517 46.6145 21.3563 47.719 21.3563H48.9071Z" fill="#1A1A1A"/>
<path d="M43.4589 18.0771V18.6503C43.4589 19.7549 42.5634 20.6503 41.4589 20.6503H37.8322C37.2799 20.6503 36.8322 21.0981 36.8322 21.6503V24.7266H41.9104V25.2543C41.9104 26.3589 41.0149 27.2543 39.9104 27.2543H36.8322V31.9721C36.8322 33.0767 35.9367 33.9721 34.8322 33.9721H33.644V20.0771C33.644 18.9725 34.5395 18.0771 35.644 18.0771H43.4589Z" fill="#1A1A1A"/>
</g>
<defs>
<clipPath id="clip0_735_2497">
<rect width="146" height="52" fill="white"/>
</clipPath>
</defs>
</svg>
