<svg xmlns="http://www.w3.org/2000/svg" xmlns:xlink="http://www.w3.org/1999/xlink" width="32" height="32.01" viewBox="0 0 32 32.01"><defs><style>.a{opacity:0.2;}.b{fill:#fff;}.c{fill:#2d2d2d;}.d{fill:#ffae00;}.e{fill:url(#a);}.f{opacity:0.7;fill:url(#b);}.g{fill:none;stroke:#2d2d2d;stroke-miterlimit:10;stroke-width:0.524px;}.h{opacity:0.996;isolation:isolate;fill:url(#c);}</style><linearGradient id="a" x1="0.947" y1="0.853" x2="0.031" y2="0.13" gradientUnits="objectBoundingBox"><stop offset="0" stop-color="#775afd"/><stop offset="1" stop-color="#ac67fd"/></linearGradient><linearGradient id="b" x1="0.146" y1="0.146" x2="0.854" y2="0.854" gradientUnits="objectBoundingBox"><stop offset="0" stop-color="#ac67fd"/><stop offset="1" stop-color="#775afd"/></linearGradient><linearGradient id="c" x1="0.274" y1="0.044" x2="0.739" y2="0.982" gradientUnits="objectBoundingBox"><stop offset="0" stop-color="#3cf"/><stop offset="1" stop-color="#d499ff"/></linearGradient></defs><g transform="translate(-2540.119 -829.732)"><g class="a"><path d="M2568.119,861.232h-24a3.5,3.5,0,0,1-3.5-3.5v-24a3.5,3.5,0,0,1,3.5-3.5h24a3.5,3.5,0,0,1,3.5,3.5v24A3.5,3.5,0,0,1,2568.119,861.232Z"/><path class="b" d="M2544.119,830.732a3,3,0,0,0-3,3v24a3,3,0,0,0,3,3h24a3,3,0,0,0,3-3v-24a3,3,0,0,0-3-3h-24m0-1h24a4,4,0,0,1,4,4v24a4,4,0,0,1-4,4h-24a4,4,0,0,1-4-4v-24A4,4,0,0,1,2544.119,829.732Z"/></g><path class="c" d="M2546.217,845.55a1.281,1.281,0,0,1-1.28-1.28v-7.615a1.05,1.05,0,1,0-.524,0v7.612a1.806,1.806,0,0,0,1.8,1.8h1.645v-.524Zm-2.074-9.907a.524.524,0,1,1,.524.524A.524.524,0,0,1,2544.143,835.643Z"/><path class="d" d="M2567.047,844.306a1.572,1.572,0,0,1,0,3.144"/><rect class="e" width="20.437" height="20.437" rx="3.883" transform="translate(2546.608 836.432)"/><circle class="b" cx="6.288" cy="6.288" r="6.288" transform="translate(2550.539 839.588)"/><path class="f" d="M2556.827,840.112a5.764,5.764,0,1,1-5.764,5.764,5.771,5.771,0,0,1,5.764-5.764m0-.524a6.288,6.288,0,1,0,6.288,6.288,6.288,6.288,0,0,0-6.288-6.288Z"/><circle class="d" cx="3.93" cy="3.93" r="3.93" transform="translate(2552.896 841.946)"/><circle class="c" cx="2.358" cy="2.358" r="2.358" transform="translate(2554.469 843.518)"/><circle class="b" cx="0.786" cy="0.786" r="0.786" transform="translate(2558.03 843.847)"/><circle class="b" cx="0.524" cy="0.524" r="0.524" transform="translate(2555.04 847.35)"/><path class="g" d="M2554.152,838.751a3.917,3.917,0,0,1,5.349,0"/><path class="g" d="M2554.152,838.751"/><path class="g" d="M2559.5,838.751"/><path class="h" d="M4.069,0h7.545a0,0,0,0,1,0,0V7.545a4.069,4.069,0,0,1-4.069,4.069H0a0,0,0,0,1,0,0V4.069A4.069,4.069,0,0,1,4.069,0Z" transform="translate(2560.485 850.128)"/><path class="b" d="M2566.637,857.9l-.243-.637h-2.065l-.243.651a2.28,2.28,0,0,1-.243.515.386.386,0,0,1-.329.134.483.483,0,0,1-.343-.143.432.432,0,0,1-.149-.322.725.725,0,0,1,.034-.215c.023-.074.062-.177.115-.308l1.3-3.3.133-.342a1.812,1.812,0,0,1,.166-.331.684.684,0,0,1,.233-.213.715.715,0,0,1,.355-.081.726.726,0,0,1,.359.081.682.682,0,0,1,.232.21,1.413,1.413,0,0,1,.149.275c.04.1.092.23.154.394l1.328,3.279a1.645,1.645,0,0,1,.156.544.45.45,0,0,1-.147.324.488.488,0,0,1-.356.148.46.46,0,0,1-.208-.044.428.428,0,0,1-.145-.118,1.058,1.058,0,0,1-.127-.228C2566.708,858.07,2566.669,857.979,2566.637,857.9Zm-2.038-1.41h1.518l-.766-2.1Z"/><path class="b" d="M2568.533,857.935v-4a.674.674,0,0,1,.142-.468.475.475,0,0,1,.368-.156.491.491,0,0,1,.376.154.668.668,0,0,1,.144.47v4a.677.677,0,0,1-.144.472.489.489,0,0,1-.376.156.475.475,0,0,1-.366-.158A.677.677,0,0,1,2568.533,857.935Z"/></g></svg>